<svg width="397" height="93" viewBox="0 0 397 93" fill="none" xmlns="http://www.w3.org/2000/svg">
<g clip-path="url(#clip0_69_116)">
<path d="M175.813 81.5103V31.651C175.813 31.5992 176.403 31.0086 176.523 30.9568C177.515 30.5113 183.843 30.8947 185.18 31.2314C187.963 31.9307 189.582 34.267 190.757 36.6654C195.806 32.3762 202.562 29.3354 209.288 31.3661C225.667 36.3132 215.647 65.1668 220.42 77.0709C220.895 78.2624 221.918 78.2779 220.514 79.5004C216.284 83.1991 205.972 83.7119 203.815 77.4283C201.732 71.3623 203.664 57.2981 203.126 50.0873C203.017 48.6368 202.656 46.1555 201.314 45.3422C198.469 43.6224 193.472 45.9069 191.582 48.2224L191.482 81.2824C186.323 82.3547 181.024 81.9403 175.813 81.5V81.5103Z" fill="#D6FFF6"/>
<path d="M370.579 30.2057C385.622 28.9262 395.178 37.3026 396.749 51.9729C398.655 69.7306 389.632 85.2245 369.801 82.6759C343.198 79.2569 343.887 32.4746 370.574 30.2057H370.579ZM373.174 41.8715C366.245 42.2859 366.428 53.3094 366.616 58.2823C366.736 61.4008 367.112 67.4875 369.441 69.7254C371.451 71.6576 375.994 71.4711 377.921 69.4819C381.461 65.8299 381.038 50.3048 379.284 45.7152C378.26 43.0422 376.083 41.6954 373.174 41.8715Z" fill="#D6FFF6"/>
<path d="M248.778 69.368L257.289 31.8064C257.696 31.2003 264.515 30.9983 265.607 31.0708C266.698 31.1433 271.287 31.7805 271.737 32.7077L257.936 81.1425L257.367 81.5155C250.339 81.5362 238.831 84.6392 235.787 76.066L223.119 32.7077C226.618 31.5059 229.818 30.5269 233.604 30.8273C238.23 31.1951 239.917 34.0287 241.128 38.0744C242.846 43.7882 244.381 50.8332 245.64 56.7128C246.522 60.831 247.091 65.0166 247.953 69.1297L248.767 69.368H248.778Z" fill="#D6FFF6"/>
<path d="M342.43 31.5681C343.6 35.7433 345.934 40.2915 343.297 44.3891C336.655 52.9519 330.562 61.9965 323.168 69.9533C323.497 70.4144 323.988 70.3211 324.463 70.3211C325.883 70.3211 327.716 69.886 329.157 69.829C333.12 69.6736 336.624 70.0984 340.592 69.2644C341.877 68.995 343.078 68.5029 344.347 68.2076C345.453 71.5695 346.91 75.6256 344.545 78.7907C342.728 81.2202 339.679 81.1218 336.932 81.5155L307.149 81.4119C305.666 77.5268 304.293 73.0304 306.642 69.2126C311.206 63.3071 315.44 57.1065 320.114 51.2891C322.442 48.3882 324.954 45.6686 327.403 42.8765C327.554 42.3274 326.693 42.4879 326.332 42.5138C323.837 42.69 321.32 43.0681 318.819 43.2339L306.919 43.2235C306.277 39.2918 306.214 35.4222 307.42 31.5785H342.43V31.5681Z" fill="#D6FFF6"/>
<path d="M161.923 13.3183V81.5052C156.66 82.0905 151.324 82.2563 146.071 81.4689L145.716 81.1218V13.3545C151.026 12.391 156.592 12.4376 161.923 13.3235V13.3183Z" fill="#D6FFF6"/>
<path d="M274.927 31.7908C279.396 31.3816 283.939 30.8947 288.414 31.3298C294.57 32.4176 296.93 37.344 297.275 43.0888C298.011 55.3659 296.695 68.3526 297.275 80.7074L297.045 81.4119C291.855 82.1216 286.529 82.3029 281.36 81.2928L281.234 47.0931C281.046 46.3057 280.89 45.4925 280.524 44.7621C279.015 41.7472 275.548 43.2132 275.016 42.519C274.081 39.0069 274.353 35.3341 274.922 31.7908H274.927Z" fill="#D6FFF6"/>
<path d="M294.382 11.5156C296.11 13.2302 295.949 21.1507 294.382 23.3005C290.492 24.8857 285.229 25.3881 281.208 23.9998C279.161 23.2902 278.968 22.3577 278.545 20.3374C278.122 18.3172 278.044 13.0282 279.626 11.5829C281.788 9.60926 292.335 9.4953 294.377 11.5156H294.382Z" fill="#D6FFF6"/>
<path opacity="0.6" d="M36.3311 61.9344C29.3343 51.8175 31.8093 38.2039 41.7875 31.0604C56.2145 23.2798 70.2499 13.9503 84.6455 6.01939C80.108 1.60068 73.7222 -0.631981 66.151 0.155408C63.0547 0.47658 60.0262 1.91149 57.3058 3.33087C41.1401 11.7642 25.5383 22.3784 9.44044 31.0604C-0.537818 38.2039 -3.01802 51.8227 3.98399 61.9344C14.8603 73.4707 22.4211 89.089 39.4588 92.3473C48.4345 94.0671 55.447 92.1505 62.6161 89.0372C51.6092 83.0022 45.0301 71.1603 36.3311 61.9344Z" fill="#00FF9D"/>
<path d="M97.6157 56.92C95.2765 44.415 93.9137 31.48 91.4021 19.032C90.3317 13.7223 87.9873 9.2829 84.6508 6.02974C70.2551 13.9554 56.2198 23.285 41.7928 31.0708C31.8145 38.2143 29.3343 51.8278 36.3363 61.9447C45.0353 71.1758 51.6144 83.0126 62.6213 89.0475C65.8012 87.6696 69.0072 86.0585 72.4325 84.4216C84.9066 78.4644 98.331 73.4448 97.6157 56.9251V56.92Z" fill="#5AEABD"/>
<path d="M129.963 56.92C127.624 44.415 126.261 31.48 123.749 19.032C121.222 6.50114 111.641 -1.21217 98.4981 0.155406C95.4018 0.476577 92.3733 1.91149 89.6529 3.33086C87.9768 4.20632 86.3112 5.10767 84.6455 6.02456C87.9873 9.27773 90.3265 13.7171 91.3969 19.0268C93.9084 31.4748 95.2713 44.4098 97.6105 56.9148C98.3258 73.4344 84.9014 78.454 72.4273 84.4112C69.002 86.0482 65.796 87.6592 62.6161 89.0372C65.3678 90.5446 68.3963 91.6946 71.8059 92.3473C84.7656 94.8286 93.6265 89.7365 104.774 84.4112C117.248 78.454 130.673 73.4344 129.958 56.9148L129.963 56.92Z" fill="#58CCF4"/>
</g>
<defs>
<clipPath id="clip0_69_116">
<rect width="397" height="93" fill="white"/>
</clipPath>
</defs>
</svg>
